<svg width="12" height="12" xmlns="http://www.w3.org/2000/svg" fill="none">

 <g>
  <title>Layer 1</title>
  <path id="svg_1" fill="#65BF73" d="m6,0c-3.3084,0 -6,2.6916 -6,6c0,3.3084 2.6916,6 6,6c3.3084,0 6,-2.6916 6,-6c0,-3.3084 -2.6916,-6 -6,-6zm0,10.8c-2.6466,0 -4.8,-2.1534 -4.8,-4.8c0,-2.6466 2.1534,-4.8 4.8,-4.8c2.6466,0 4.8,2.1534 4.8,4.8c0,2.6466 -2.1534,4.8 -4.8,4.8z"/>
  <g>
   <path fill="#65BF73" d="m5.19458,6.66867l-1.23566,-1.2436l-0.75892,0.76729l1.99566,2.00764l3.60434,-3.63379l-0.76,-0.76621l-2.84542,2.86867z"/>
  </g>
 </g>
</svg>