<svg width="12" height="12" xmlns="http://www.w3.org/2000/svg" fill="none">

 <g>
  <title>Layer 1</title>
  <path id="svg_1" fill="#D89B9B" d="m5.9718,0c-3.2928,0 -5.9718,2.6916 -5.9718,6c0,3.3084 2.6916,6 6,6c3.3084,0 6,-2.6916 6,-6c0,-3.3084 -2.7042,-6 -6.0282,-6zm0.0282,10.8c-2.6466,0 -4.8,-2.1534 -4.8,-4.8c0,-2.6466 2.1402,-4.8 4.7718,-4.8c2.6628,0 4.8282,2.1534 4.8282,4.8c0,2.6466 -2.1534,4.8 -4.8,4.8z"/>
  <g>
   <path fill="#D89B9B" d="m7.436,4.00003l-1.436,1.43598l-1.436,-1.43598l-0.564,0.56399l1.436,1.43598l-1.436,1.43598l0.564,0.56399l1.436,-1.43598l1.436,1.43598l0.564,-0.56399l-1.436,-1.43598l1.436,-1.43598l-0.564,-0.56399z"/>
  </g>
 </g>
</svg>